<svg xmlns="http://www.w3.org/2000/svg" version="1.1" xmlns:xlink="http://www.w3.org/1999/xlink" xmlns:svgjs="http://svgjs.dev/svgjs" width="1440" height="560" preserveAspectRatio="none" viewBox="0 0 1440 560"><g mask="url(&quot;#SvgjsMask1032&quot;)" fill="none"><rect width="1440" height="560" x="0" y="0" fill="rgba(17, 43, 71, 1)"></rect><path d="M42.81 -38.9L129.42 11.1L129.42 111.1L42.81 161.1L-43.8 111.1L-43.8 11.1zM129.42 411.1L216.02 461.1L216.02 561.1L129.42 611.1L42.81 561.1L42.81 461.1zM216.02 -38.9L302.63 11.1L302.63 111.1L216.02 161.1L129.42 111.1L129.42 11.1zM302.63 111.1L389.23 161.1L389.23 261.1L302.63 311.1L216.02 261.1L216.02 161.1zM302.63 411.1L389.23 461.1L389.23 561.1L302.63 611.1L216.02 561.1L216.02 461.1zM389.23 -38.9L475.84 11.1L475.84 111.1L389.23 161.1L302.63 111.1L302.63 11.1zM475.84 411.1L562.44 461.1L562.44 561.1L475.84 611.1L389.23 561.1L389.23 461.1zM389.23 561.1L475.84 611.1L475.84 711.1L389.23 761.1L302.63 711.1L302.63 611.1zM562.44 -38.9L649.05 11.1L649.05 111.1L562.44 161.1L475.83 111.1L475.83 11.1zM649.05 111.1L735.65 161.1L735.65 261.1L649.05 311.1L562.44 261.1L562.44 161.1zM735.65 -38.9L822.26 11.1L822.26 111.1L735.65 161.1L649.05 111.1L649.05 11.1zM822.26 111.1L908.86 161.1L908.86 261.1L822.26 311.1L735.65 261.1L735.65 161.1zM735.65 261.1L822.26 311.1L822.26 411.1L735.65 461.1L649.05 411.1L649.05 311.1zM822.26 411.1L908.86 461.1L908.86 561.1L822.26 611.1L735.65 561.1L735.65 461.1zM735.65 561.1L822.26 611.1L822.26 711.1L735.65 761.1L649.05 711.1L649.05 611.1zM908.86 -38.9L995.47 11.1L995.47 111.1L908.86 161.1L822.26 111.1L822.26 11.1zM995.47 411.1L1082.07 461.1L1082.07 561.1L995.47 611.1L908.86 561.1L908.86 461.1zM908.86 561.1L995.47 611.1L995.47 711.1L908.86 761.1L822.26 711.1L822.26 611.1zM1082.07 -38.9L1168.67 11.1L1168.67 111.1L1082.07 161.1L995.46 111.1L995.46 11.1zM1168.67 411.1L1255.28 461.1L1255.28 561.1L1168.67 611.1L1082.07 561.1L1082.07 461.1zM1341.88 411.1L1428.49 461.1L1428.49 561.1L1341.88 611.1L1255.28 561.1L1255.28 461.1zM1428.49 261.1L1515.1 311.1L1515.1 411.1L1428.49 461.1L1341.88 411.1L1341.88 311.1zM1428.49 561.1L1515.1 611.1L1515.1 711.1L1428.49 761.1L1341.88 711.1L1341.88 611.1z" stroke="rgba(22, 54, 93, 1)" stroke-width="2"></path><path d="M32.81 -38.9 a10 10 0 1 0 20 0 a10 10 0 1 0 -20 0zM119.42 11.1 a10 10 0 1 0 20 0 a10 10 0 1 0 -20 0zM119.42 111.1 a10 10 0 1 0 20 0 a10 10 0 1 0 -20 0zM32.81 161.1 a10 10 0 1 0 20 0 a10 10 0 1 0 -20 0zM-53.8 111.1 a10 10 0 1 0 20 0 a10 10 0 1 0 -20 0zM-53.8 11.1 a10 10 0 1 0 20 0 a10 10 0 1 0 -20 0zM119.42 411.1 a10 10 0 1 0 20 0 a10 10 0 1 0 -20 0zM206.02 461.1 a10 10 0 1 0 20 0 a10 10 0 1 0 -20 0zM206.02 561.1 a10 10 0 1 0 20 0 a10 10 0 1 0 -20 0zM119.42 611.1 a10 10 0 1 0 20 0 a10 10 0 1 0 -20 0zM32.81 561.1 a10 10 0 1 0 20 0 a10 10 0 1 0 -20 0zM32.81 461.1 a10 10 0 1 0 20 0 a10 10 0 1 0 -20 0zM206.02 -38.9 a10 10 0 1 0 20 0 a10 10 0 1 0 -20 0zM292.63 11.1 a10 10 0 1 0 20 0 a10 10 0 1 0 -20 0zM292.63 111.1 a10 10 0 1 0 20 0 a10 10 0 1 0 -20 0zM206.02 161.1 a10 10 0 1 0 20 0 a10 10 0 1 0 -20 0zM379.23 161.1 a10 10 0 1 0 20 0 a10 10 0 1 0 -20 0zM379.23 261.1 a10 10 0 1 0 20 0 a10 10 0 1 0 -20 0zM292.63 311.1 a10 10 0 1 0 20 0 a10 10 0 1 0 -20 0zM206.02 261.1 a10 10 0 1 0 20 0 a10 10 0 1 0 -20 0zM292.63 411.1 a10 10 0 1 0 20 0 a10 10 0 1 0 -20 0zM379.23 461.1 a10 10 0 1 0 20 0 a10 10 0 1 0 -20 0zM379.23 561.1 a10 10 0 1 0 20 0 a10 10 0 1 0 -20 0zM292.63 611.1 a10 10 0 1 0 20 0 a10 10 0 1 0 -20 0zM379.23 -38.9 a10 10 0 1 0 20 0 a10 10 0 1 0 -20 0zM465.84 11.1 a10 10 0 1 0 20 0 a10 10 0 1 0 -20 0zM465.84 111.1 a10 10 0 1 0 20 0 a10 10 0 1 0 -20 0zM465.84 411.1 a10 10 0 1 0 20 0 a10 10 0 1 0 -20 0zM552.44 461.1 a10 10 0 1 0 20 0 a10 10 0 1 0 -20 0zM552.44 561.1 a10 10 0 1 0 20 0 a10 10 0 1 0 -20 0zM465.84 611.1 a10 10 0 1 0 20 0 a10 10 0 1 0 -20 0zM465.84 711.1 a10 10 0 1 0 20 0 a10 10 0 1 0 -20 0zM379.23 761.1 a10 10 0 1 0 20 0 a10 10 0 1 0 -20 0zM292.63 711.1 a10 10 0 1 0 20 0 a10 10 0 1 0 -20 0zM552.44 -38.9 a10 10 0 1 0 20 0 a10 10 0 1 0 -20 0zM639.05 11.1 a10 10 0 1 0 20 0 a10 10 0 1 0 -20 0zM639.05 111.1 a10 10 0 1 0 20 0 a10 10 0 1 0 -20 0zM552.44 161.1 a10 10 0 1 0 20 0 a10 10 0 1 0 -20 0zM465.83 111.1 a10 10 0 1 0 20 0 a10 10 0 1 0 -20 0zM465.83 11.1 a10 10 0 1 0 20 0 a10 10 0 1 0 -20 0zM725.65 161.1 a10 10 0 1 0 20 0 a10 10 0 1 0 -20 0zM725.65 261.1 a10 10 0 1 0 20 0 a10 10 0 1 0 -20 0zM639.05 311.1 a10 10 0 1 0 20 0 a10 10 0 1 0 -20 0zM552.44 261.1 a10 10 0 1 0 20 0 a10 10 0 1 0 -20 0zM725.65 -38.9 a10 10 0 1 0 20 0 a10 10 0 1 0 -20 0zM812.26 11.1 a10 10 0 1 0 20 0 a10 10 0 1 0 -20 0zM812.26 111.1 a10 10 0 1 0 20 0 a10 10 0 1 0 -20 0zM898.86 161.1 a10 10 0 1 0 20 0 a10 10 0 1 0 -20 0zM898.86 261.1 a10 10 0 1 0 20 0 a10 10 0 1 0 -20 0zM812.26 311.1 a10 10 0 1 0 20 0 a10 10 0 1 0 -20 0zM812.26 411.1 a10 10 0 1 0 20 0 a10 10 0 1 0 -20 0zM725.65 461.1 a10 10 0 1 0 20 0 a10 10 0 1 0 -20 0zM639.05 411.1 a10 10 0 1 0 20 0 a10 10 0 1 0 -20 0zM898.86 461.1 a10 10 0 1 0 20 0 a10 10 0 1 0 -20 0zM898.86 561.1 a10 10 0 1 0 20 0 a10 10 0 1 0 -20 0zM812.26 611.1 a10 10 0 1 0 20 0 a10 10 0 1 0 -20 0zM725.65 561.1 a10 10 0 1 0 20 0 a10 10 0 1 0 -20 0zM812.26 711.1 a10 10 0 1 0 20 0 a10 10 0 1 0 -20 0zM725.65 761.1 a10 10 0 1 0 20 0 a10 10 0 1 0 -20 0zM639.05 711.1 a10 10 0 1 0 20 0 a10 10 0 1 0 -20 0zM639.05 611.1 a10 10 0 1 0 20 0 a10 10 0 1 0 -20 0zM898.86 -38.9 a10 10 0 1 0 20 0 a10 10 0 1 0 -20 0zM985.47 11.1 a10 10 0 1 0 20 0 a10 10 0 1 0 -20 0zM985.47 111.1 a10 10 0 1 0 20 0 a10 10 0 1 0 -20 0zM985.47 411.1 a10 10 0 1 0 20 0 a10 10 0 1 0 -20 0zM1072.07 461.1 a10 10 0 1 0 20 0 a10 10 0 1 0 -20 0zM1072.07 561.1 a10 10 0 1 0 20 0 a10 10 0 1 0 -20 0zM985.47 611.1 a10 10 0 1 0 20 0 a10 10 0 1 0 -20 0zM985.47 711.1 a10 10 0 1 0 20 0 a10 10 0 1 0 -20 0zM898.86 761.1 a10 10 0 1 0 20 0 a10 10 0 1 0 -20 0zM1072.07 -38.9 a10 10 0 1 0 20 0 a10 10 0 1 0 -20 0zM1158.67 11.1 a10 10 0 1 0 20 0 a10 10 0 1 0 -20 0zM1158.67 111.1 a10 10 0 1 0 20 0 a10 10 0 1 0 -20 0zM1072.07 161.1 a10 10 0 1 0 20 0 a10 10 0 1 0 -20 0zM985.46 111.1 a10 10 0 1 0 20 0 a10 10 0 1 0 -20 0zM985.46 11.1 a10 10 0 1 0 20 0 a10 10 0 1 0 -20 0zM1158.67 411.1 a10 10 0 1 0 20 0 a10 10 0 1 0 -20 0zM1245.28 461.1 a10 10 0 1 0 20 0 a10 10 0 1 0 -20 0zM1245.28 561.1 a10 10 0 1 0 20 0 a10 10 0 1 0 -20 0zM1158.67 611.1 a10 10 0 1 0 20 0 a10 10 0 1 0 -20 0zM1331.88 411.1 a10 10 0 1 0 20 0 a10 10 0 1 0 -20 0zM1418.49 461.1 a10 10 0 1 0 20 0 a10 10 0 1 0 -20 0zM1418.49 561.1 a10 10 0 1 0 20 0 a10 10 0 1 0 -20 0zM1331.88 611.1 a10 10 0 1 0 20 0 a10 10 0 1 0 -20 0zM1418.49 261.1 a10 10 0 1 0 20 0 a10 10 0 1 0 -20 0zM1505.1 311.1 a10 10 0 1 0 20 0 a10 10 0 1 0 -20 0zM1505.1 411.1 a10 10 0 1 0 20 0 a10 10 0 1 0 -20 0zM1331.88 311.1 a10 10 0 1 0 20 0 a10 10 0 1 0 -20 0zM1505.1 611.1 a10 10 0 1 0 20 0 a10 10 0 1 0 -20 0zM1505.1 711.1 a10 10 0 1 0 20 0 a10 10 0 1 0 -20 0zM1418.49 761.1 a10 10 0 1 0 20 0 a10 10 0 1 0 -20 0zM1331.88 711.1 a10 10 0 1 0 20 0 a10 10 0 1 0 -20 0z" fill="rgba(22, 54, 93, 1)"></path><path d="M29.66 92.76L65.17 113.26L65.17 154.26L29.66 174.76L-5.85 154.26L-5.85 113.26zM65.17 277.26L100.68 297.76L100.68 338.76L65.17 359.26L29.66 338.76L29.66 297.76zM136.18 277.26L171.69 297.76L171.69 338.76L136.18 359.26L100.68 338.76L100.68 297.76zM136.18 400.26L171.69 420.76L171.69 461.76L136.18 482.26L100.68 461.76L100.68 420.76zM171.69 -30.24L207.2 -9.74L207.2 31.26L171.69 51.76L136.18 31.26L136.18 -9.74zM171.69 338.76L207.2 359.26L207.2 400.26L171.69 420.76L136.18 400.26L136.18 359.26zM207.2 400.26L242.71 420.76L242.71 461.76L207.2 482.26L171.69 461.76L171.69 420.76zM278.22 31.26L313.72 51.76L313.72 92.76L278.22 113.26L242.71 92.76L242.71 51.76zM242.71 215.76L278.22 236.26L278.22 277.26L242.71 297.76L207.2 277.26L207.2 236.26zM313.72 -30.24L349.23 -9.74L349.23 31.26L313.72 51.76L278.22 31.26L278.22 -9.74zM313.72 461.76L349.23 482.26L349.23 523.26L313.72 543.76L278.22 523.26L278.22 482.26zM384.74 338.76L420.25 359.26L420.25 400.26L384.74 420.76L349.23 400.26L349.23 359.26zM420.25 523.26L455.76 543.76L455.76 584.76L420.25 605.26L384.74 584.76L384.74 543.76zM455.76 -30.24L491.26 -9.74L491.26 31.26L455.76 51.76L420.25 31.26L420.25 -9.74zM562.28 31.26L597.79 51.76L597.79 92.76L562.28 113.26L526.77 92.76L526.77 51.76zM597.79 215.76L633.3 236.26L633.3 277.26L597.79 297.76L562.28 277.26L562.28 236.26zM633.3 400.26L668.8 420.76L668.8 461.76L633.3 482.26L597.79 461.76L597.79 420.76zM668.8 -30.24L704.31 -9.74L704.31 31.26L668.8 51.76L633.3 31.26L633.3 -9.74zM704.31 31.26L739.82 51.76L739.82 92.76L704.31 113.26L668.8 92.76L668.8 51.76zM704.31 277.26L739.82 297.76L739.82 338.76L704.31 359.26L668.8 338.76L668.8 297.76zM668.8 461.76L704.31 482.26L704.31 523.26L668.8 543.76L633.3 523.26L633.3 482.26zM739.82 338.76L775.33 359.26L775.33 400.26L739.82 420.76L704.31 400.26L704.31 359.26zM775.33 400.26L810.84 420.76L810.84 461.76L775.33 482.26L739.82 461.76L739.82 420.76zM739.82 461.76L775.33 482.26L775.33 523.26L739.82 543.76L704.31 523.26L704.31 482.26zM810.84 92.76L846.35 113.26L846.35 154.26L810.84 174.76L775.33 154.26L775.33 113.26zM810.84 215.76L846.35 236.26L846.35 277.26L810.84 297.76L775.33 277.26L775.33 236.26zM917.36 154.26L952.87 174.76L952.87 215.76L917.36 236.26L881.85 215.76L881.85 174.76zM881.85 215.76L917.36 236.26L917.36 277.26L881.85 297.76L846.35 277.26L846.35 236.26zM881.85 338.76L917.36 359.26L917.36 400.26L881.85 420.76L846.35 400.26L846.35 359.26zM917.36 400.26L952.87 420.76L952.87 461.76L917.36 482.26L881.85 461.76L881.85 420.76zM917.36 523.26L952.87 543.76L952.87 584.76L917.36 605.26L881.85 584.76L881.85 543.76zM988.38 154.26L1023.89 174.76L1023.89 215.76L988.38 236.26L952.87 215.76L952.87 174.76zM1023.89 -30.24L1059.39 -9.74L1059.39 31.26L1023.89 51.76L988.38 31.26L988.38 -9.74zM1059.39 31.26L1094.9 51.76L1094.9 92.76L1059.39 113.26L1023.89 92.76L1023.89 51.76zM1094.9 215.76L1130.41 236.26L1130.41 277.26L1094.9 297.76L1059.39 277.26L1059.39 236.26zM1165.92 -30.24L1201.43 -9.74L1201.43 31.26L1165.92 51.76L1130.41 31.26L1130.41 -9.74zM1165.92 461.76L1201.43 482.26L1201.43 523.26L1165.92 543.76L1130.41 523.26L1130.41 482.26zM1272.44 31.26L1307.95 51.76L1307.95 92.76L1272.44 113.26L1236.93 92.76L1236.93 51.76zM1272.44 277.26L1307.95 297.76L1307.95 338.76L1272.44 359.26L1236.93 338.76L1236.93 297.76zM1307.95 -30.24L1343.46 -9.74L1343.46 31.26L1307.95 51.76L1272.44 31.26L1272.44 -9.74zM1343.46 31.26L1378.97 51.76L1378.97 92.76L1343.46 113.26L1307.95 92.76L1307.95 51.76zM1343.46 277.26L1378.97 297.76L1378.97 338.76L1343.46 359.26L1307.95 338.76L1307.95 297.76zM1307.95 461.76L1343.46 482.26L1343.46 523.26L1307.95 543.76L1272.44 523.26L1272.44 482.26zM1414.47 31.26L1449.98 51.76L1449.98 92.76L1414.47 113.26L1378.97 92.76L1378.97 51.76zM1378.97 92.76L1414.47 113.26L1414.47 154.26L1378.97 174.76L1343.46 154.26L1343.46 113.26zM1378.97 215.76L1414.47 236.26L1414.47 277.26L1378.97 297.76L1343.46 277.26L1343.46 236.26zM1485.49 400.26L1521 420.76L1521 461.76L1485.49 482.26L1449.98 461.76L1449.98 420.76z" stroke="rgba(35, 84, 143, 1)" stroke-width="2"></path></g><defs><mask id="SvgjsMask1032"><rect width="1440" height="560" fill="#ffffff"></rect></mask></defs></svg>