<svg id="visual" viewBox="0 0 1160 740" width="1160" height="740" xmlns="http://www.w3.org/2000/svg" xmlns:xlink="http://www.w3.org/1999/xlink" version="1.1"><path d="M0 350L48.3 351.3C96.7 352.7 193.3 355.3 290 369.8C386.7 384.3 483.3 410.7 580 423.7C676.7 436.7 773.3 436.3 870 419.5C966.7 402.7 1063.3 369.3 1111.7 352.7L1160 336L1160 0L1111.7 0C1063.3 0 966.7 0 870 0C773.3 0 676.7 0 580 0C483.3 0 386.7 0 290 0C193.3 0 96.7 0 48.3 0L0 0Z" fill="#303180" stroke-linecap="round" stroke-linejoin="miter"></path></svg>