<svg id="visual" viewBox="0 0 900 450" width="900" height="450" xmlns="http://www.w3.org/2000/svg" xmlns:xlink="http://www.w3.org/1999/xlink" version="1.1"><path d="M0 60L113 96L225 91L338 78L450 51L563 73L675 64L788 37L900 78L900 0L788 0L675 0L563 0L450 0L338 0L225 0L113 0L0 0Z" fill="#2e3580"></path><path d="M0 118L113 186L225 204L338 262L450 231L563 159L675 181L788 172L900 208L900 76L788 35L675 62L563 71L450 49L338 76L225 89L113 94L0 58Z" fill="#353d8e"></path><path d="M0 190L113 226L225 240L338 303L450 267L563 222L675 222L788 244L900 249L900 206L788 170L675 179L563 157L450 229L338 260L225 202L113 184L0 116Z" fill="#3d459c"></path><path d="M0 298L113 294L225 325L338 366L450 343L563 276L675 312L788 330L900 334L900 247L788 242L675 220L563 220L450 265L338 301L225 238L113 224L0 188Z" fill="#444daa"></path><path d="M0 451L113 451L225 451L338 451L450 451L563 451L675 451L788 451L900 451L900 332L788 328L675 310L563 274L450 341L338 364L225 323L113 292L0 296Z" fill="#4c55b9"></path></svg>