<!--?xml version="1.0" standalone="no"?-->
              <svg id="sw-js-blob-svg" viewBox="0 0 100 100" xmlns="http://www.w3.org/2000/svg" version="1.1">
                    <defs> 
                        <linearGradient id="sw-gradient" x1="0" x2="1" y1="1" y2="0">
                            <stop id="stop1" stop-color="rgba(79, 182, 252, 1)" offset="0%"></stop>
                            <stop id="stop2" stop-color="rgba(79, 182, 252, 1)" offset="100%"></stop>
                        </linearGradient>
                    </defs>
                <path fill="url(#sw-gradient)" d="M25.5,-29.2C33.5,-23.7,40.6,-16.1,41.7,-7.7C42.8,0.7,37.8,9.8,32.6,18.7C27.3,27.6,21.8,36.3,13.9,39.9C5.9,43.6,-4.5,42.2,-12.6,37.9C-20.8,33.5,-26.8,26.2,-30,18.4C-33.2,10.6,-33.7,2.3,-32.3,-5.7C-30.9,-13.7,-27.6,-21.3,-21.9,-27.3C-16.2,-33.2,-8.1,-37.4,0.3,-37.8C8.8,-38.2,17.5,-34.8,25.5,-29.2Z" width="100%" height="100%" transform="translate(50 50)" stroke-width="0" style="transition: 0.3s;"></path>
              </svg>