<svg width="81" height="81" viewBox="0 0 81 81" fill="none" xmlns="http://www.w3.org/2000/svg">
<path d="M71.1699 79.38H80.4199L71.1699 70.13V79.38Z" fill="#6E6E6E"/>
<path d="M57.3 65.52H66.56L57.3 56.27V65.52Z" fill="#6E6E6E"/>
<path d="M43.4399 51.65H52.6899L43.4399 42.4V51.65Z" fill="#6E6E6E"/>
<path d="M29.5699 37.78H38.8199L29.5699 28.53V37.78Z" fill="#6E6E6E"/>
<path d="M15.71 23.92H24.96L15.71 14.67V23.92Z" fill="#6E6E6E"/>
<path d="M1.83997 10.05H11.09L1.83997 0.800018V10.05Z" fill="#6E6E6E"/>
<path d="M43.1401 79.68H52.4001L43.1401 70.43V79.68Z" fill="#6E6E6E"/>
<path d="M29.28 65.81H38.53L29.28 56.56V65.81Z" fill="#6E6E6E"/>
<path d="M15.41 51.94H24.66L15.41 42.69V51.94Z" fill="#6E6E6E"/>
<path d="M1.55005 38.08H10.8L1.55005 28.83V38.08Z" fill="#6E6E6E"/>
<path d="M15.12 79.97H24.37L15.12 70.72V79.97Z" fill="#6E6E6E"/>
<path d="M1.25 66.1H10.5L1.25 56.85V66.1Z" fill="#6E6E6E"/>
<path d="M56.75 79.93H66L56.75 70.68V79.93Z" fill="#6E6E6E"/>
<path d="M42.8901 66.07H52.1401L42.8901 56.82V66.07Z" fill="#6E6E6E"/>
<path d="M29.02 52.2H38.27L29.02 42.95V52.2Z" fill="#6E6E6E"/>
<path d="M15.16 38.34H24.41L15.16 29.08V38.34Z" fill="#6E6E6E"/>
<path d="M1.29004 24.47H10.54L1.29004 15.22V24.47Z" fill="#6E6E6E"/>
<path d="M29.13 79.82H38.38L29.13 70.57V79.82Z" fill="#6E6E6E"/>
<path d="M15.27 65.96H24.52L15.27 56.71V65.96Z" fill="#6E6E6E"/>
<path d="M1.40002 52.09H10.65L1.40002 42.84V52.09Z" fill="#6E6E6E"/>
<path d="M0.619995 80.61H9.87L0.619995 71.35V80.61Z" fill="#6E6E6E"/>
</svg>
