<svg width="85" height="85" viewBox="0 0 85 85" fill="none" xmlns="http://www.w3.org/2000/svg">
<path d="M5.63013 21.74L21.3801 5.98999C18.5801 7.58999 15.9901 9.49998 13.6401 11.67L11.3101 14C9.14012 16.34 7.23013 18.94 5.63013 21.74Z" fill="#FF9D00"/>
<path d="M0.930176 34.2599L33.9002 1.28992C32.9902 1.46992 32.0902 1.68992 31.2002 1.92992L1.57019 31.5599C1.32019 32.4499 1.11018 33.3499 0.930176 34.2599Z" fill="#FF9D00"/>
<path d="M0.0900879 42.64C0.0900879 42.73 0.0900879 42.82 0.0900879 42.91L42.54 0.459961C42.45 0.459961 42.3601 0.459961 42.2701 0.459961C41.6601 0.459961 41.0501 0.479954 40.4401 0.499954L0.130066 40.81C0.110066 41.42 0.0900879 42.02 0.0900879 42.64Z" fill="#FF9D00"/>
<path d="M0.75 50.0699L49.72 1.09995C49.13 0.999945 48.53 0.899946 47.94 0.819946L0.47998 48.2799C0.54998 48.8899 0.64 49.4799 0.75 50.0699Z" fill="#FF9D00"/>
<path d="M2.3501 56.29L55.9301 2.70996C55.4101 2.52996 54.8901 2.36996 54.3701 2.20996L1.86011 54.72C2.01011 55.25 2.1701 55.77 2.3501 56.29Z" fill="#FF9D00"/>
<path d="M4.67999 61.78L61.43 5.02998C60.97 4.79998 60.51 4.56999 60.04 4.35999L4 60.39C4.22 60.86 4.43999 61.32 4.67999 61.78Z" fill="#FF9D00"/>
<path d="M7.59998 66.67L66.31 7.95995C65.9 7.67995 65.49 7.39994 65.08 7.12994L6.78003 65.4299C7.05003 65.8499 7.31998 66.26 7.59998 66.67Z" fill="#FF9D00"/>
<path d="M11.0701 71.02L70.6601 11.43C70.3001 11.1 69.9301 10.78 69.5601 10.47L10.1001 69.93C10.4201 70.3 10.7401 70.66 11.0701 71.02Z" fill="#FF9D00"/>
<path d="M15.0502 74.8599L74.5002 15.4099C74.1902 15.0399 73.8702 14.6699 73.5402 14.3099L13.9502 73.8999C14.3102 74.2299 14.6802 74.5499 15.0502 74.8599Z" fill="#FF9D00"/>
<path d="M19.55 78.18L77.8301 19.9C77.5601 19.48 77.2901 19.07 77.0001 18.67L18.3101 77.36C18.7201 77.64 19.13 77.92 19.55 78.18Z" fill="#FF9D00"/>
<path d="M24.5999 80.95L80.59 24.9599C80.37 24.4899 80.1499 24.0299 79.9199 23.5699L23.21 80.2799C23.67 80.5099 24.1299 80.7299 24.5999 80.95Z" fill="#FF9D00"/>
<path d="M30.28 83.09L82.74 30.64C82.58 30.11 82.42 29.59 82.25 29.08L28.72 82.61C29.23 82.77 29.75 82.93 30.28 83.09Z" fill="#FF9D00"/>
<path d="M36.7199 84.46L84.0999 37.08C84.0199 36.48 83.93 35.89 83.83 35.29L34.9399 84.18C35.5299 84.29 36.1199 84.38 36.7199 84.46Z" fill="#FF9D00"/>
<path d="M42.2802 84.83C42.9302 84.83 43.5801 84.81 44.2201 84.78L84.4201 44.58C84.4501 43.94 84.4701 43.29 84.4701 42.64C84.4701 42.59 84.4701 42.53 84.4701 42.48L42.1301 84.82C42.1701 84.82 42.2302 84.83 42.2802 84.83Z" fill="#FF9D00"/>
<path d="M53.5101 83.31L82.9501 53.87C83.2001 52.98 83.42 52.07 83.6 51.16L50.79 83.97C51.71 83.78 52.6201 83.56 53.5101 83.31Z" fill="#FF9D00"/>
<path d="M78.78 63.7999L63.4399 79.14C69.7899 75.45 75.09 70.1499 78.78 63.7999Z" fill="#FF9D00"/>
</svg>
